<svg version="1.1" id="Layer_1" xmlns="http://www.w3.org/2000/svg" xmlns:xlink="http://www.w3.org/1999/xlink" x="0px" y="0px"
	 width="100%" viewBox="0 0 202 196" enable-background="new 0 0 202 196" xml:space="preserve">
<path fill="#FEFEFE" opacity="1.000000" stroke="none" 
	d="
M120.000000,197.000000 
	C80.024826,197.000000 40.549648,197.000000 1.037237,197.000000 
	C1.037237,131.732574 1.037237,66.465111 1.037237,1.098827 
	C68.225006,1.098827 135.450195,1.098827 202.837708,1.098827 
	C202.837708,66.333008 202.837708,131.666473 202.837708,197.000000 
	C175.465408,197.000000 147.982697,197.000000 120.000000,197.000000 
M97.103073,12.643302 
	C92.658157,13.269184 88.142532,13.582426 83.779289,14.569392 
	C40.884872,24.272104 13.313772,65.792046 18.767685,108.854759 
	C24.391813,153.261459 67.961739,187.810013 112.259674,181.688217 
	C160.178802,175.065964 191.826447,134.058487 186.142548,85.954376 
	C181.040726,42.776577 141.373245,9.744912 97.103073,12.643302 
z"/>
<path fill="#010101" opacity="1.000000" stroke="none" 
	d="
M97.551605,12.600126 
	C141.373245,9.744912 181.040726,42.776577 186.142548,85.954376 
	C191.826447,134.058487 160.178802,175.065964 112.259674,181.688217 
	C67.961739,187.810013 24.391813,153.261459 18.767685,108.854759 
	C13.313772,65.792046 40.884872,24.272104 83.779289,14.569392 
	C88.142532,13.582426 92.658157,13.269184 97.551605,12.600126 
M72.333450,74.167671 
	C70.763466,72.237503 69.193474,70.307343 67.964844,68.796852 
	C62.913124,73.825371 58.611778,78.106964 53.503506,83.191772 
	C58.656887,87.981720 64.095337,93.036636 69.549828,98.106453 
	C67.701042,100.099548 66.238548,101.676193 64.792503,103.235107 
	C69.229195,107.634285 73.550110,111.918686 78.021858,116.352631 
	C79.589531,114.925606 81.271675,113.394379 82.989098,111.831032 
	C85.431870,114.169434 87.653320,116.295959 90.398239,118.923599 
	C82.219902,126.957756 74.301529,134.736542 66.388100,142.510452 
	C70.835495,146.998871 75.150505,151.353668 79.841988,156.088425 
	C87.665001,147.970734 95.396286,139.948212 103.660591,131.372604 
	C107.327896,135.555954 110.618782,139.309906 113.919617,143.075211 
	C118.693703,138.249619 122.987267,133.909744 127.508278,129.339966 
	C109.316048,111.148514 91.074150,92.907402 72.333450,74.167671 
M105.059433,62.440605 
	C99.987328,57.242916 94.915222,52.045231 90.616524,47.640095 
	C85.729004,52.361881 81.356781,56.585850 76.061905,61.701187 
	C81.098343,66.338188 86.315025,71.141136 91.630241,76.034813 
	C89.983795,77.797081 88.560966,79.320000 87.676094,80.267128 
	C92.151428,85.064743 96.316902,89.530182 100.478073,93.991005 
	C102.135765,92.466568 103.711685,91.017319 104.951378,89.877274 
	C107.521530,92.112167 109.877609,94.160912 112.218964,96.196861 
	C110.442741,98.133652 109.001328,99.705360 108.137253,100.647552 
	C112.650833,105.233360 116.917816,109.568626 121.332687,114.054153 
	C122.567818,112.893417 124.093597,111.459534 126.031311,109.638519 
	C130.427139,114.254738 134.656586,118.696236 138.312286,122.535233 
	C143.157288,118.076752 147.636734,113.954666 152.295792,109.667297 
	C136.635254,94.010010 121.097343,78.475304 105.059433,62.440605 
M125.475334,69.123497 
	C130.496994,64.152435 135.518646,59.181374 140.078812,54.667152 
	C135.291718,49.945679 130.990799,45.703712 126.839577,41.609402 
	C121.093697,47.381561 115.030472,53.472511 108.945625,59.585182 
	C113.171722,63.655708 117.554710,67.877342 122.115257,72.270012 
	C122.798424,71.649422 123.888222,70.659439 125.475334,69.123497 
z"/>
<path fill="#FAFAFA" opacity="1.000000" stroke="none" 
	d="
M72.582855,74.416977 
	C91.074150,92.907402 109.316048,111.148514 127.508278,129.339966 
	C122.987267,133.909744 118.693703,138.249619 113.919617,143.075211 
	C110.618782,139.309906 107.327896,135.555954 103.660591,131.372604 
	C95.396286,139.948212 87.665001,147.970734 79.841988,156.088425 
	C75.150505,151.353668 70.835495,146.998871 66.388100,142.510452 
	C74.301529,134.736542 82.219902,126.957756 90.398239,118.923599 
	C87.653320,116.295959 85.431870,114.169434 82.989098,111.831032 
	C81.271675,113.394379 79.589531,114.925606 78.021858,116.352631 
	C73.550110,111.918686 69.229195,107.634285 64.792503,103.235107 
	C66.238548,101.676193 67.701042,100.099548 69.549828,98.106453 
	C64.095337,93.036636 58.656887,87.981720 53.503506,83.191772 
	C58.611778,78.106964 62.913124,73.825371 67.964844,68.796852 
	C69.193474,70.307343 70.763466,72.237503 72.582855,74.416977 
z"/>
<path fill="#FAFAFA" opacity="1.000000" stroke="none" 
	d="
M105.309433,62.690605 
	C121.097343,78.475304 136.635254,94.010010 152.295792,109.667297 
	C147.636734,113.954666 143.157288,118.076752 138.312286,122.535233 
	C134.656586,118.696236 130.427139,114.254738 126.031311,109.638519 
	C124.093597,111.459534 122.567818,112.893417 121.332687,114.054153 
	C116.917816,109.568626 112.650833,105.233360 108.137253,100.647552 
	C109.001328,99.705360 110.442741,98.133652 112.218964,96.196861 
	C109.877609,94.160912 107.521530,92.112167 104.951378,89.877274 
	C103.711685,91.017319 102.135765,92.466568 100.478073,93.991005 
	C96.316902,89.530182 92.151428,85.064743 87.676094,80.267128 
	C88.560966,79.320000 89.983795,77.797081 91.630241,76.034813 
	C86.315025,71.141136 81.098343,66.338188 76.061905,61.701187 
	C81.356781,56.585850 85.729004,52.361881 90.616524,47.640095 
	C94.915222,52.045231 99.987328,57.242916 105.309433,62.690605 
z"/>
<path fill="#F8F8F8" opacity="1.000000" stroke="none" 
	d="
M125.226677,69.396484 
	C123.888222,70.659439 122.798424,71.649422 122.115257,72.270012 
	C117.554710,67.877342 113.171722,63.655708 108.945625,59.585182 
	C115.030472,53.472511 121.093697,47.381561 126.839577,41.609402 
	C130.990799,45.703712 135.291718,49.945679 140.078812,54.667152 
	C135.518646,59.181374 130.496994,64.152435 125.226677,69.396484 
z"/>
</svg>